<?xml version="1.0" encoding="utf-8"?>
<!-- Generator: Adobe Illustrator 16.0.0, SVG Export Plug-In . SVG Version: 6.00 Build 0)  -->
<!DOCTYPE svg PUBLIC "-//W3C//DTD SVG 1.1//EN" "http://www.w3.org/Graphics/SVG/1.1/DTD/svg11.dtd">
<svg version="1.1" id="Capa_1" xmlns="http://www.w3.org/2000/svg" xmlns:xlink="http://www.w3.org/1999/xlink" x="0px" y="0px"
	 width="31.898px" height="50.632px" viewBox="0 0 31.898 50.632" enable-background="new 0 0 31.898 50.632" xml:space="preserve">
<g>
	<g>
		<g>
			<path fill="#FFFFFF" d="M15.95,0C7.139,0,0,7.142,0,15.95c0,8.808,15.95,34.682,15.95,34.682S31.899,24.759,31.899,15.95
				C31.899,7.141,24.758,0,15.95,0z M15.95,28.291c-6.805,0-12.343-5.535-12.343-12.34C3.607,9.145,9.145,3.608,15.95,3.608
				c6.805,0,12.341,5.537,12.341,12.342C28.291,22.756,22.755,28.291,15.95,28.291z"/>
			<path fill="#FFFFFF" d="M24.378,20.693L15.511,9.514L7.939,20.291l0.24,0.555l-0.118,0.052h4.391h0.941
				c-0.343-0.477-0.547-1.061-0.547-1.693c0-1.602,1.296-2.901,2.897-2.901c1.601,0,2.9,1.3,2.9,2.901
				c0,0.633-0.204,1.217-0.548,1.694h6.44l-0.059-0.077l-0.121-0.019L24.378,20.693z"/>
			<polygon fill="#FFFFFF" points="7.513,20.897 7.574,20.897 7.551,20.846 			"/>
			<path fill="#FFFFFF" d="M25.413,18.021l-0.571-0.097l-0.155,0.905c0.194,0.151,0.372,0.275,0.528,0.364L25.413,18.021z"/>
			<path fill="#FFFFFF" d="M24.602,19.352l-0.226,1.342l0.104,0.128l0.45,0.076l0.275-1.642l-0.198,0.362
				C24.885,19.552,24.745,19.455,24.602,19.352z"/>
			<path fill="#FFFFFF" d="M7.365,18.966c-0.039,0.013-0.079,0.03-0.115,0.042l-0.124-0.455c0.014-0.004,0.034-0.017,0.049-0.023
				l-0.157-0.36L6.49,18.4l1.062,2.443L7.94,20.29L7.365,18.966z"/>
			<polygon fill="#FFFFFF" points="7.651,21.076 8.061,20.897 7.574,20.897 			"/>
			<path fill="#FFFFFF" d="M15.449,8.604c1.157,1.573,6.63,8.904,9.151,10.748l0.085-0.521c-2.784-2.203-8.995-10.696-9.064-10.789
				l-0.21-0.286L15.23,8.06c-1.645,2.732-6.254,9.878-8.057,10.47l0.189,0.437C9.537,18.142,14.424,10.285,15.449,8.604z"/>
			<path fill="#FFFFFF" d="M25.218,19.194l-0.012,0.062l0.027-0.052C25.228,19.202,25.224,19.196,25.218,19.194z"/>
		</g>
	</g>
</g>
</svg>
