<?xml version="1.0" encoding="utf-8"?>
<!-- Generator: Adobe Illustrator 16.0.0, SVG Export Plug-In . SVG Version: 6.00 Build 0)  -->
<!DOCTYPE svg PUBLIC "-//W3C//DTD SVG 1.1//EN" "http://www.w3.org/Graphics/SVG/1.1/DTD/svg11.dtd">
<svg version="1.1" id="Capa_1" xmlns="http://www.w3.org/2000/svg" xmlns:xlink="http://www.w3.org/1999/xlink" x="0px" y="0px"
	 width="31.899px" height="50.632px" viewBox="5.919 0 31.899 50.632" enable-background="new 5.919 0 31.899 50.632"
	 xml:space="preserve">
<g>
	<g>
		<g>
			<g>
				<path fill="#FF8000" d="M21.869,0c-8.811,0-15.95,7.142-15.95,15.95s15.95,34.682,15.95,34.682S37.818,24.759,37.818,15.95
					S30.677,0,21.869,0z M21.869,28.29c-6.804,0-12.342-5.534-12.342-12.34C9.526,9.145,15.064,3.608,21.869,3.608
					S34.21,9.145,34.21,15.95C34.21,22.756,28.674,28.29,21.869,28.29z"/>
				<path fill="#FF8000" d="M30.297,20.693L21.43,9.514l-7.572,10.777l0.24,0.555l-0.118,0.052h4.39h0.942
					c-0.343-0.477-0.547-1.061-0.547-1.693c0-1.602,1.296-2.901,2.897-2.901s2.901,1.3,2.901,2.901c0,0.633-0.204,1.217-0.548,1.694
					h6.44l-0.058-0.077l-0.121-0.019L30.297,20.693z"/>
				<polygon fill="#FF8000" points="13.432,20.897 13.493,20.897 13.47,20.846 				"/>
				<path fill="#FF8000" d="M31.332,18.021l-0.571-0.097l-0.155,0.905c0.194,0.151,0.372,0.275,0.528,0.364L31.332,18.021z"/>
				<path fill="#FF8000" d="M30.521,19.352l-0.226,1.342l0.104,0.128l0.45,0.076l0.275-1.642l-0.198,0.362
					C30.804,19.552,30.664,19.455,30.521,19.352z"/>
				<path fill="#FF8000" d="M13.283,18.966c-0.039,0.013-0.079,0.03-0.115,0.042l-0.124-0.455c0.014-0.004,0.034-0.017,0.049-0.023
					l-0.157-0.36L12.408,18.4l1.062,2.443l0.389-0.553L13.283,18.966z"/>
				<polygon fill="#FF8000" points="13.57,21.076 13.98,20.897 13.493,20.897 				"/>
				<path fill="#FF8000" d="M21.368,8.604c1.158,1.573,6.63,8.904,9.152,10.748l0.085-0.521C27.821,16.628,21.61,8.135,21.54,8.042
					l-0.21-0.286L21.149,8.06c-1.645,2.732-6.254,9.878-8.057,10.47l0.189,0.437C15.456,18.142,20.343,10.285,21.368,8.604z"/>
				<path fill="#FF8000" d="M31.137,19.194l-0.012,0.062l0.028-0.052C31.147,19.202,31.143,19.196,31.137,19.194z"/>
			</g>
		</g>
	</g>
</g>
</svg>
