<?xml version="1.0" encoding="utf-8"?>
<!-- Generator: Adobe Illustrator 16.0.0, SVG Export Plug-In . SVG Version: 6.00 Build 0)  -->
<!DOCTYPE svg PUBLIC "-//W3C//DTD SVG 1.1//EN" "http://www.w3.org/Graphics/SVG/1.1/DTD/svg11.dtd">
<svg version="1.1" id="Layer_1" xmlns="http://www.w3.org/2000/svg" xmlns:xlink="http://www.w3.org/1999/xlink" x="0px" y="0px"
	 width="43.25px" height="67.477px" viewBox="0 0 43.25 67.477" enable-background="new 0 0 43.25 67.477" xml:space="preserve">
<g>
	<path fill="#FFFFFF" d="M40.779,45.419c-0.485-0.209-0.954-0.434-1.407-0.669l0.965-2.474c0.022-0.062,0.021-0.132-0.008-0.193
		c-0.029-0.061-0.082-0.104-0.146-0.125l-0.69-0.213c-0.063-0.02-0.134-0.012-0.192,0.022c-0.058,0.032-0.1,0.089-0.113,0.154
		l-0.293,1.274c-7.332-2.312-12.121-15.347-12.17-15.483l-0.043-0.121c-0.024-0.132-0.035-0.203-0.035-0.203
		c-0.002,0.026-0.006,0.057-0.008,0.083l-0.035-0.099l-0.105,0.345c-2.28,7.449-10.765,13.908-12.698,15.304l-0.251-1.099
		c-0.016-0.065-0.057-0.122-0.114-0.155c-0.058-0.033-0.128-0.041-0.191-0.021l-0.691,0.213c-0.064,0.021-0.117,0.065-0.145,0.125
		c-0.029,0.062-0.033,0.131-0.008,0.193l1.138,2.917c-0.197,0.147-0.304,0.226-0.304,0.226h0.392l0.564,1.449
		c0.038,0.094,0.128,0.154,0.224,0.154c0.025,0,0.048-0.004,0.071-0.011c0.122-0.036,0.193-0.161,0.166-0.285l-0.3-1.307h7.316
		c1.175-0.467,4.517-3.253,5.062-7.35c0,0,1.182,5.802,2.951,7.35h8.709l-0.3,1.307c-0.028,0.124,0.043,0.249,0.163,0.285
		c0.023,0.007,0.048,0.011,0.071,0.011c0.098,0,0.188-0.062,0.225-0.154l0.563-1.449L40.779,45.419L40.779,45.419z M14.183,44.695
		l-0.325-1.418c1.729-1.238,10.042-7.487,12.654-14.838C25.27,35.462,17.015,42.472,14.183,44.695z M27.062,29.199
		c1.479,3.479,5.78,12.355,11.777,14.234l-0.211,0.922C30.889,40.02,28.012,32.606,27.062,29.199z"/>
</g>
<path fill="#888888" stroke="#FFFFFF" stroke-miterlimit="10" d="M21.625,0C9.682,0,0,9.682,0,21.625s21.625,45.852,21.625,45.852
	S43.25,33.567,43.25,21.625S33.566,0,21.625,0z M21.625,36.879c-8.425,0-15.255-6.83-15.255-15.254C6.37,13.2,13.2,6.37,21.625,6.37
	c8.424,0,15.254,6.83,15.254,15.255C36.879,30.049,30.049,36.879,21.625,36.879z"/>
<g>
	<path fill="#888888" d="M35.824,25.595c-0.486-0.21-0.955-0.435-1.408-0.67l0.965-2.474c0.023-0.062,0.021-0.132-0.008-0.193
		c-0.029-0.061-0.082-0.104-0.146-0.125l-0.689-0.213c-0.062-0.02-0.133-0.012-0.191,0.022c-0.059,0.033-0.101,0.089-0.115,0.155
		l-0.293,1.273C26.605,21.062,21.817,8.026,21.768,7.89l-0.043-0.121C21.7,7.637,21.69,7.565,21.69,7.565
		c-0.003,0.026-0.007,0.057-0.008,0.083L21.646,7.55L21.54,7.895c-2.277,7.446-10.762,13.906-12.695,15.301l-0.251-1.098
		c-0.016-0.066-0.057-0.122-0.114-0.156c-0.06-0.032-0.13-0.04-0.193-0.021l-0.691,0.213c-0.064,0.021-0.117,0.065-0.145,0.125
		c-0.029,0.062-0.033,0.132-0.008,0.193L8.58,25.37c-0.197,0.148-0.304,0.227-0.304,0.227h0.392l0.564,1.448
		c0.038,0.095,0.128,0.154,0.224,0.154c0.025,0,0.048-0.004,0.071-0.011c0.122-0.036,0.193-0.161,0.166-0.285l-0.3-1.306h7.316
		c1.175-0.468,4.517-3.254,5.061-7.351c0,0,1.182,5.802,2.951,7.351h8.709l-0.299,1.306c-0.027,0.124,0.043,0.249,0.163,0.285
		c0.024,0.007,0.048,0.011,0.071,0.011c0.098,0,0.188-0.061,0.225-0.154l0.564-1.448L35.824,25.595L35.824,25.595z M9.227,24.871
		l-0.325-1.418c1.729-1.238,10.043-7.487,12.653-14.838C20.314,15.638,12.059,22.648,9.227,24.871z M22.106,9.375
		c1.48,3.479,5.781,12.355,11.778,14.234l-0.211,0.922C25.934,20.196,23.057,12.782,22.106,9.375z"/>
</g>
</svg>
