<?xml version="1.0" encoding="utf-8"?>
<!-- Generator: Adobe Illustrator 16.0.0, SVG Export Plug-In . SVG Version: 6.00 Build 0)  -->
<!DOCTYPE svg PUBLIC "-//W3C//DTD SVG 1.1//EN" "http://www.w3.org/Graphics/SVG/1.1/DTD/svg11.dtd">
<svg version="1.1" id="Capa_1" xmlns="http://www.w3.org/2000/svg" xmlns:xlink="http://www.w3.org/1999/xlink" x="0px" y="0px"
	 width="330.865px" height="60.1px" viewBox="0 0 330.865 60.1" enable-background="new 0 0 330.865 60.1" xml:space="preserve">
<g>
	<path fill="#BF6A00" d="M67.646,41.722c-0.774-0.336-1.52-0.692-2.243-1.064l1.537-3.939c0.038-0.098,0.034-0.209-0.012-0.306
		c-0.045-0.097-0.13-0.169-0.232-0.2l-1.1-0.338c-0.101-0.031-0.211-0.018-0.304,0.033c-0.093,0.054-0.159,0.145-0.182,0.248
		l-0.466,2.028c-11.669-3.678-19.292-24.425-19.371-24.643l-0.07-0.192c-0.039-0.211-0.057-0.325-0.057-0.325
		c-0.002,0.044-0.009,0.089-0.012,0.134L45.078,13l-0.168,0.55c-3.625,11.854-17.129,22.135-20.207,24.354l-0.4-1.749
		c-0.024-0.104-0.09-0.192-0.182-0.248c-0.092-0.053-0.205-0.064-0.305-0.033l-1.1,0.338c-0.103,0.032-0.187,0.104-0.233,0.201
		c-0.046,0.096-0.051,0.207-0.011,0.307l1.811,4.645c-0.312,0.234-0.484,0.358-0.484,0.358h0.625l0.899,2.306
		c0.059,0.151,0.203,0.244,0.357,0.244c0.038,0,0.075-0.005,0.112-0.016c0.192-0.06,0.306-0.257,0.261-0.452l-0.476-2.081h11.644
		c1.87-0.744,7.191-5.177,8.053-11.697c0,0,1.882,9.234,4.699,11.697h13.861l-0.475,2.081c-0.046,0.195,0.068,0.393,0.26,0.452
		c0.036,0.012,0.075,0.016,0.112,0.016c0.155,0,0.298-0.093,0.357-0.244l0.9-2.306L67.646,41.722L67.646,41.722z M25.313,40.57
		l-0.517-2.26c2.751-1.972,15.985-11.916,20.138-23.616C42.96,25.871,29.82,37.031,25.313,40.57z M45.812,15.904
		c2.357,5.537,9.203,19.664,18.748,22.656l-0.336,1.467C51.904,33.125,47.325,21.327,45.812,15.904z"/>
</g>
<text transform="matrix(1 0 0 1 77.6465 41.9534)" fill="#888888" font-family="'Alba'" font-size="41">CampForFree</text>
</svg>
