<?xml version="1.0" encoding="utf-8"?>
<!-- Generator: Adobe Illustrator 16.0.0, SVG Export Plug-In . SVG Version: 6.00 Build 0)  -->
<!DOCTYPE svg PUBLIC "-//W3C//DTD SVG 1.1//EN" "http://www.w3.org/Graphics/SVG/1.1/DTD/svg11.dtd">
<svg version="1.1" id="Layer_1" xmlns="http://www.w3.org/2000/svg" xmlns:xlink="http://www.w3.org/1999/xlink" x="0px" y="0px"
	 width="39.385px" height="67.477px" viewBox="0 0 39.385 67.477" enable-background="new 0 0 39.385 67.477" xml:space="preserve">
<g id="Layer_1_1_">
	<path fill="#F0AD4E" d="M39.385,19.732c0,10.875-18.975,47.704-18.975,47.704S0,30.608,0,19.732S8.816,0.041,19.692,0.041
		S39.385,8.856,39.385,19.732z"/>
	<circle fill="#FFFFFF" cx="19.692" cy="19.733" r="14.667"/>
	<g>
		<path fill="#F0AD4E" d="M31.435,25.251c-0.401-0.172-0.79-0.359-1.164-0.554l0.798-2.047c0.02-0.05,0.018-0.108-0.006-0.158
			c-0.023-0.052-0.068-0.087-0.121-0.104l-0.57-0.176c-0.053-0.018-0.111-0.011-0.16,0.017c-0.047,0.027-0.082,0.074-0.092,0.128
			l-0.242,1.054c-6.065-1.912-10.025-12.693-10.065-12.806l-0.036-0.101c-0.02-0.109-0.027-0.168-0.027-0.168
			c-0.004,0.021-0.006,0.047-0.008,0.068l-0.027-0.081l-0.088,0.284c-1.887,6.161-8.902,11.503-10.502,12.657l-0.207-0.908
			c-0.014-0.054-0.047-0.101-0.095-0.129c-0.048-0.026-0.104-0.033-0.159-0.017l-0.57,0.176c-0.053,0.017-0.098,0.053-0.12,0.104
			s-0.027,0.107-0.007,0.159l0.94,2.412c-0.161,0.122-0.25,0.188-0.25,0.188h0.323l0.468,1.199c0.03,0.077,0.104,0.127,0.185,0.127
			c0.021,0,0.041-0.003,0.06-0.01c0.101-0.029,0.16-0.133,0.138-0.235L9.58,25.251h6.051c0.973-0.387,3.735-2.69,4.188-6.079
			c0,0,0.977,4.799,2.439,6.079h7.203l-0.248,1.081c-0.022,0.103,0.035,0.206,0.135,0.235c0.019,0.007,0.04,0.01,0.06,0.01
			c0.08,0,0.155-0.052,0.187-0.127l0.465-1.199H31.435L31.435,25.251z M9.438,24.651l-0.271-1.173
			c1.431-1.022,8.307-6.191,10.467-12.271C18.607,17.015,11.78,22.813,9.438,24.651z M20.088,11.837
			c1.226,2.877,4.781,10.218,9.742,11.771l-0.177,0.763C23.254,20.786,20.875,14.653,20.088,11.837z"/>
	</g>
</g>
<g id="Layer_2">
</g>
</svg>
