<?xml version="1.0" encoding="utf-8"?>
<!-- Generator: Adobe Illustrator 16.0.0, SVG Export Plug-In . SVG Version: 6.00 Build 0)  -->
<!DOCTYPE svg PUBLIC "-//W3C//DTD SVG 1.1//EN" "http://www.w3.org/Graphics/SVG/1.1/DTD/svg11.dtd">
<svg version="1.1" id="Capa_1" xmlns="http://www.w3.org/2000/svg" xmlns:xlink="http://www.w3.org/1999/xlink" x="0px" y="0px"
	 width="330.865px" height="60.1px" viewBox="0 0 330.865 60.1" enable-background="new 0 0 330.865 60.1" xml:space="preserve">
<g>
	<path fill="#888888" d="M91.646,55.198c-1.488-0.646-2.921-1.332-4.31-2.046l2.953-7.57c0.074-0.189,0.065-0.402-0.023-0.589
		c-0.088-0.186-0.25-0.323-0.446-0.384l-2.114-0.649c-0.193-0.06-0.406-0.035-0.584,0.065c-0.179,0.103-0.305,0.275-0.35,0.476
		L85.877,48.4C63.451,41.329,48.801,1.458,48.65,1.039L48.516,0.67c-0.075-0.405-0.109-0.625-0.109-0.625
		c-0.005,0.085-0.017,0.171-0.022,0.257L48.275,0l-0.323,1.057c-6.965,22.78-32.919,42.538-38.834,46.804l-0.77-3.36
		c-0.046-0.2-0.172-0.371-0.35-0.475C7.821,43.923,7.605,43.9,7.412,43.96L5.299,44.61c-0.196,0.061-0.359,0.2-0.447,0.384
		c-0.088,0.186-0.098,0.399-0.022,0.59l3.48,8.926c-0.599,0.451-0.931,0.689-0.931,0.689H8.58l1.728,4.433
		c0.113,0.289,0.391,0.469,0.687,0.469c0.073,0,0.145-0.011,0.216-0.031c0.369-0.115,0.588-0.493,0.502-0.87l-0.916-3.999h22.378
		c3.593-1.429,13.818-9.948,15.476-22.478c0,0,3.616,17.745,9.03,22.478H84.32l-0.914,3.999c-0.087,0.376,0.132,0.755,0.501,0.87
		c0.07,0.021,0.145,0.031,0.216,0.031c0.298,0,0.574-0.18,0.687-0.469l1.729-4.433L91.646,55.198L91.646,55.198z M10.29,52.983
		l-0.994-4.342c5.287-3.789,30.72-22.901,38.702-45.386C44.205,24.736,18.951,46.181,10.29,52.983z M49.684,5.581
		c4.531,10.641,17.686,37.79,36.03,43.539l-0.646,2.819C61.393,38.677,52.592,16.003,49.684,5.581z"/>
</g>
<rect x="181.199" y="93.289" fill="none" width="287.333" height="40"/>
<text transform="matrix(1 0 0 1 90.646 41.9534)" fill="#888888" font-family="'Alba'" font-size="41">CampForFree</text>
</svg>
