<?xml version="1.0" encoding="utf-8"?>
<!-- Generator: Adobe Illustrator 16.0.0, SVG Export Plug-In . SVG Version: 6.00 Build 0)  -->
<!DOCTYPE svg PUBLIC "-//W3C//DTD SVG 1.1//EN" "http://www.w3.org/Graphics/SVG/1.1/DTD/svg11.dtd">
<svg version="1.1" id="Layer_1" xmlns="http://www.w3.org/2000/svg" xmlns:xlink="http://www.w3.org/1999/xlink" x="0px" y="0px"
	 width="103px" height="103px" viewBox="0 0 103 103" enable-background="new 0 0 103 103" xml:space="preserve">
<g>
	<g>
		<path d="M10.112,70.445c0,1.646,1.336,2.984,2.985,2.984h20.129c0-3.381,1.32-6.563,3.709-8.953
			c2.389-2.388,5.572-3.708,8.952-3.708c3.381,0,6.563,1.32,8.953,3.708c2.389,2.39,3.707,5.572,3.707,8.953h3.105l0,0h28.314
			c1.432,0,2.588-1.156,2.588-2.588v-1.294c0-1.432-1.156-2.587-2.588-2.587h-8.314V40.613c0-11.815-9.581-21.397-21.396-21.397
			H31.519c-11.816,0-21.397,9.582-21.397,21.397v29.832H10.112z M72.33,41.13v10.315H49.122V28.634h10.711
			C66.732,28.634,72.33,34.231,72.33,41.13z M19.444,41.13c0-6.898,5.598-12.496,12.497-12.496h10.712v22.812H19.444V41.13z"/>
		<path d="M45.887,83.503c5.563,0,10.073-4.511,10.073-10.073c0-5.563-4.51-10.074-10.073-10.074
			c-5.562,0-10.073,4.511-10.073,10.074C35.813,78.992,40.324,83.503,45.887,83.503z M45.887,69.737
			c2.035,0,3.691,1.656,3.691,3.692c0,2.035-1.656,3.691-3.691,3.691s-3.691-1.656-3.691-3.691
			C42.196,71.394,43.852,69.737,45.887,69.737z"/>
	</g>
</g>
<circle fill="none" stroke="#000000" stroke-width="4" stroke-miterlimit="10" cx="51.333" cy="51.359" r="50"/>
</svg>
