<?xml version="1.0" encoding="utf-8"?>
<!-- Generator: Adobe Illustrator 16.0.0, SVG Export Plug-In . SVG Version: 6.00 Build 0)  -->
<!DOCTYPE svg PUBLIC "-//W3C//DTD SVG 1.1//EN" "http://www.w3.org/Graphics/SVG/1.1/DTD/svg11.dtd">
<svg version="1.1" id="Layer_1" xmlns="http://www.w3.org/2000/svg" xmlns:xlink="http://www.w3.org/1999/xlink" x="0px" y="0px"
	 width="103px" height="103px" viewBox="0 0 103 103" enable-background="new 0 0 103 103" xml:space="preserve">
<circle fill="#FFFFFF" stroke="#F0AD4E" stroke-width="4" stroke-miterlimit="10" cx="51.333" cy="51.359" r="50"/>
<g>
	<g>
		<path fill="#F0AD4E" d="M16.112,67.667c0,1.406,1.142,2.55,2.551,2.55h17.199c0-2.889,1.127-5.607,3.169-7.648
			c2.042-2.041,4.761-3.17,7.649-3.17c2.889,0,5.607,1.129,7.65,3.17c2.041,2.041,3.167,4.761,3.167,7.648h2.653l0,0h24.191
			c1.225,0,2.213-0.986,2.213-2.212V66.9c0-1.224-0.988-2.211-2.213-2.211h-7.104V42.177c0-10.095-8.188-18.283-18.282-18.283
			H34.403c-10.096,0-18.283,8.188-18.283,18.283v25.49H16.112z M69.273,42.619v8.814H49.443V31.942h9.153
			C64.491,31.942,69.273,36.724,69.273,42.619z M24.085,42.619c0-5.894,4.783-10.677,10.678-10.677h9.153v19.491H24.085V42.619z"/>
		<path fill="#F0AD4E" d="M46.68,78.824c4.753,0,8.607-3.854,8.607-8.607c0-4.752-3.854-8.607-8.607-8.607
			c-4.752,0-8.607,3.855-8.607,8.607C38.072,74.971,41.927,78.824,46.68,78.824z M46.68,67.062c1.739,0,3.154,1.414,3.154,3.154
			c0,1.738-1.415,3.153-3.154,3.153c-1.739,0-3.154-1.415-3.154-3.153S44.941,67.062,46.68,67.062z"/>
	</g>
</g>
</svg>
