<?xml version="1.0" encoding="utf-8"?>
<!-- Generator: Adobe Illustrator 16.0.0, SVG Export Plug-In . SVG Version: 6.00 Build 0)  -->
<!DOCTYPE svg PUBLIC "-//W3C//DTD SVG 1.1//EN" "http://www.w3.org/Graphics/SVG/1.1/DTD/svg11.dtd">
<svg version="1.1" id="Layer_1" xmlns="http://www.w3.org/2000/svg" xmlns:xlink="http://www.w3.org/1999/xlink" x="0px" y="0px"
	 width="103.851px" height="104.137px" viewBox="0 0 103.851 104.137" enable-background="new 0 0 103.851 104.137"
	 xml:space="preserve">
<g>
	<path d="M51.095,65.523c13.704,0.154,17.864-11.465,10.231-23.825c-4.075-6.581-9.527-14.735-7.892-23.375
		C47.331,28.75,23.744,65.228,51.095,65.523z M47.747,44.856c0.945,1.483,1.656,3.128,1.925,4.988
		c0.436-2.574-1.258-7.223,1.847-12.474c0.468-0.782,0.816-1.504,1.124-2.082c-0.913,5.326,2.134,10.357,4.405,14.414
		c4.266,7.621,1.94,14.782-5.711,14.688C40.839,64.265,43.782,53.602,47.747,44.856z M79.888,78.084l-2.162,8.029l-25.749-6.952
		l-25.781,6.186l-1.943-8.083l10.963-2.63l-11.033-2.979l2.164-8.03l25.752,6.954l25.786-6.192l1.938,8.086l-10.961,2.632
		L79.888,78.084z"/>
</g>
<circle fill="none" stroke="#000000" stroke-width="4" stroke-miterlimit="10" cx="52.036" cy="52.218" r="50"/>
</svg>
