<?xml version="1.0" encoding="utf-8"?>
<!-- Generator: Adobe Illustrator 16.0.0, SVG Export Plug-In . SVG Version: 6.00 Build 0)  -->
<!DOCTYPE svg PUBLIC "-//W3C//DTD SVG 1.1//EN" "http://www.w3.org/Graphics/SVG/1.1/DTD/svg11.dtd">
<svg version="1.1" id="Layer_1" xmlns="http://www.w3.org/2000/svg" xmlns:xlink="http://www.w3.org/1999/xlink" x="0px" y="0px"
	 width="104.322px" height="104.322px" viewBox="0 0 104.322 104.322" enable-background="new 0 0 104.322 104.322"
	 xml:space="preserve">
<circle fill="#FFFFFF" stroke="#F0AD4E" stroke-width="4" stroke-miterlimit="10" cx="52.182" cy="52.206" r="50"/>
<g>
	<path fill="#F0AD4E" d="M29.65,37.936c3.359,0,6.086-2.727,6.086-6.088c0-3.36-2.727-6.086-6.086-6.086
		c-3.363,0-6.086,2.726-6.086,6.086C23.564,35.21,26.287,37.936,29.65,37.936z"/>
	<path fill="#F0AD4E" d="M91.717,72.562c-1.061-1.06-2.779-1.059-3.835,0.003c-0.885,0.885-2.423,0.889-3.315-0.005
		c-1.915-1.913-4.751-2.559-7.312-1.973C65.129,47.769,65.296,32.74,65.515,29.55l1.816-1.378c0.593-0.451,0.712-1.302,0.259-1.899
		c-0.451-0.594-1.304-0.714-1.9-0.26L44.474,42.105c-0.822-0.799-2.07-1.046-3.139-0.479l-6.888,3.646l-5.201-4.061
		c-0.619-1.162-1.518-1.973-2.86-2.541c-0.371-0.155-1.613-0.539-2.822-0.259c-1.815,0.422-3.469,1.543-4.168,3.414
		c0,0-4.794,12.754-6.319,16.866c-1.2,3.231,1.181,6.258,3.419,6.258c0.008,0,0.014,0,0.021,0L29.6,64.889L34,75.979
		c0.635,1.598,2.163,2.568,3.78,2.568c0.501,0,1.007-0.092,1.499-0.285c2.091-0.829,3.109-3.194,2.283-5.282l-5.424-13.673
		c-0.614-1.553-2.113-2.567-3.781-2.567c-0.006,0-0.015,0-0.021,0l-6.957,0.033l3.394-9.053l3.725,2.906
		c0.486,0.38,1.074,0.576,1.667,0.576c0.436,0,0.871-0.104,1.271-0.317l8.44-4.468c0.574-0.304,0.961-0.806,1.194-1.36l19.022-14.43
		c-0.152,4.973,0.67,19.271,11.849,40.376c-0.864,0.366-1.674,0.875-2.362,1.562c-0.869,0.87-2.434,0.87-3.305,0
		c-2.938-2.94-8.053-2.94-10.988-0.005c-0.886,0.886-2.432,0.883-3.313,0c-1.062-1.06-2.777-1.06-3.835,0
		c-1.06,1.059-1.06,2.775,0,3.835c3.028,3.028,7.955,3.033,10.986,0c0.883-0.886,2.43-0.887,3.318,0.004
		c1.462,1.467,3.412,2.272,5.486,2.272c2.072,0,4.022-0.807,5.491-2.278c0.887-0.885,2.426-0.889,3.319,0.004
		c3.024,3.025,7.95,3.026,10.983-0.004C92.779,75.337,92.776,73.621,91.717,72.562z"/>
	<path fill="#F0AD4E" d="M26.472,66.796H13.945c-1.064,0-1.928,0.862-1.928,1.929v8.01c0,1.062,0.862,1.928,1.928,1.928h12.527
		c1.063,0,1.928-0.864,1.928-1.928v-8.01C28.4,67.658,27.537,66.796,26.472,66.796z"/>
</g>
</svg>
