<?xml version="1.0" encoding="utf-8"?>
<!-- Generator: Adobe Illustrator 16.0.0, SVG Export Plug-In . SVG Version: 6.00 Build 0)  -->
<!DOCTYPE svg PUBLIC "-//W3C//DTD SVG 1.1//EN" "http://www.w3.org/Graphics/SVG/1.1/DTD/svg11.dtd">
<svg version="1.1" id="Layer_1" xmlns="http://www.w3.org/2000/svg" xmlns:xlink="http://www.w3.org/1999/xlink" x="0px" y="0px"
	 width="104.322px" height="104.322px" viewBox="0 0 104.322 104.322" enable-background="new 0 0 104.322 104.322"
	 xml:space="preserve">
<g>
	<path d="M29.65,37.936c3.36,0,6.086-2.726,6.086-6.088c0-3.36-2.726-6.086-6.086-6.086c-3.363,0-6.086,2.726-6.086,6.086
		C23.564,35.21,26.287,37.936,29.65,37.936z"/>
	<path d="M91.717,72.562c-1.061-1.059-2.78-1.058-3.835,0.003c-0.885,0.885-2.423,0.889-3.316-0.005
		c-1.915-1.913-4.751-2.558-7.312-1.972C65.129,47.769,65.296,32.74,65.515,29.55l1.817-1.378c0.593-0.452,0.712-1.302,0.259-1.9
		c-0.452-0.594-1.304-0.714-1.901-0.26L44.474,42.105c-0.822-0.799-2.07-1.046-3.138-0.479l-6.888,3.646l-5.201-4.06
		c-0.619-1.162-1.518-1.973-2.861-2.541c-0.371-0.156-1.613-0.539-2.822-0.259c-1.815,0.422-3.469,1.543-4.168,3.414
		c0,0-4.794,12.754-6.319,16.866c-1.2,3.232,1.181,6.258,3.419,6.258c0.008,0,0.014,0,0.02,0L29.6,64.889L34,75.979
		c0.635,1.598,2.163,2.569,3.78,2.569c0.501,0,1.007-0.092,1.499-0.286c2.091-0.829,3.109-3.194,2.283-5.282l-5.424-13.673
		c-0.614-1.552-2.113-2.567-3.781-2.567c-0.006,0-0.014,0-0.021,0l-6.957,0.033l3.393-9.053l3.725,2.907
		c0.486,0.38,1.074,0.576,1.667,0.576c0.435,0,0.871-0.105,1.271-0.317l8.441-4.468c0.574-0.304,0.961-0.806,1.194-1.361
		l19.023-14.429c-0.153,4.972,0.669,19.27,11.848,40.376c-0.864,0.366-1.674,0.875-2.362,1.562c-0.869,0.87-2.434,0.87-3.305,0
		c-2.938-2.94-8.053-2.94-10.988-0.005c-0.886,0.886-2.432,0.883-3.314,0c-1.061-1.059-2.777-1.059-3.835,0
		c-1.059,1.059-1.059,2.776,0,3.835c3.029,3.029,7.956,3.033,10.987,0c0.883-0.885,2.429-0.886,3.318,0.004
		c1.462,1.467,3.412,2.273,5.486,2.273c2.073,0,4.023-0.807,5.492-2.279c0.886-0.884,2.425-0.888,3.319,0.004
		c3.024,3.026,7.95,3.027,10.983-0.004C92.779,75.337,92.776,73.621,91.717,72.562z"/>
	<path d="M26.472,66.796H13.945c-1.064,0-1.928,0.862-1.928,1.928v8.01c0,1.063,0.863,1.928,1.928,1.928h12.527
		c1.064,0,1.928-0.864,1.928-1.928v-8.01C28.4,67.658,27.537,66.796,26.472,66.796z"/>
</g>
<circle fill="none" stroke="#000000" stroke-width="4" stroke-miterlimit="10" cx="52.182" cy="52.206" r="50"/>
</svg>
