<?xml version="1.0" encoding="utf-8"?>
<!-- Generator: Adobe Illustrator 16.0.0, SVG Export Plug-In . SVG Version: 6.00 Build 0)  -->
<!DOCTYPE svg PUBLIC "-//W3C//DTD SVG 1.1//EN" "http://www.w3.org/Graphics/SVG/1.1/DTD/svg11.dtd">
<svg version="1.1" id="Layer_1" xmlns="http://www.w3.org/2000/svg" xmlns:xlink="http://www.w3.org/1999/xlink" x="0px" y="0px"
	 width="103px" height="103px" viewBox="0 0 103 103" enable-background="new 0 0 103 103" xml:space="preserve">
<path d="M88.1,69.33c-5.455-7.685-22.185-31.449-22.185-31.449c-0.399-0.57-1.032-0.939-1.726-1.01
	c-0.697-0.067-1.385,0.163-1.895,0.639l-4.383,4.104L47.625,22.522c-0.417-0.771-1.216-1.256-2.092-1.268
	c-0.861-0.039-1.69,0.451-2.127,1.21l-27.24,47.386c-0.429,0.748-0.426,1.667,0.002,2.413c0.434,0.744,1.23,1.203,2.09,1.203h68.101
	c0.018-0.002,0.034-0.001,0.047,0c1.335,0,2.414-1.08,2.414-2.413C88.82,70.379,88.461,69.84,88.1,69.33z M58.925,47.279l4.644-4.35
	l9.232,13.088l-7.833-8.159c-0.127-0.131-0.302-0.206-0.485-0.208c-0.179-0.001-0.355,0.071-0.486,0.199l-5.585,5.578
	c-0.194,0.195-0.485,0.252-0.741,0.147c-0.254-0.105-0.418-0.354-0.416-0.628l0.021-5.074C57.879,47.873,58.473,47.7,58.925,47.279z
	 M45.431,28.629l5.989,11.112l-4.497,3.967c-0.14,0.124-0.326,0.184-0.509,0.167c-0.186-0.017-0.358-0.11-0.471-0.256l-2.883-3.658
	c-0.137-0.173-0.35-0.27-0.568-0.258c-0.222,0.012-0.424,0.13-0.54,0.317l-4.358,6.95c-0.137,0.215-0.382,0.337-0.637,0.314
	c-0.255-0.024-0.477-0.188-0.57-0.425l-0.584-1.48L45.431,28.629z"/>
<circle fill="none" stroke="#000000" stroke-width="4" stroke-miterlimit="10" cx="51.333" cy="51.359" r="50"/>
</svg>
