<?xml version="1.0" encoding="utf-8"?>
<!-- Generator: Adobe Illustrator 16.0.0, SVG Export Plug-In . SVG Version: 6.00 Build 0)  -->
<!DOCTYPE svg PUBLIC "-//W3C//DTD SVG 1.1//EN" "http://www.w3.org/Graphics/SVG/1.1/DTD/svg11.dtd">
<svg version="1.1" id="Layer_1" xmlns="http://www.w3.org/2000/svg" xmlns:xlink="http://www.w3.org/1999/xlink" x="0px" y="0px"
	 width="103px" height="103px" viewBox="0 0 103 103" enable-background="new 0 0 103 103" xml:space="preserve">
<circle fill="none" stroke="#000000" stroke-width="4" stroke-miterlimit="10" cx="51.333" cy="51.359" r="50"/>
<g>
	<path id="Fill-20" d="M80.345,56.633c-5.102,1.859-10.747-0.77-12.606-5.874c-1.859-5.103,0.769-10.748,5.872-12.608
		c5.103-1.858,10.747,0.77,12.608,5.873C88.078,49.126,85.449,54.772,80.345,56.633L80.345,56.633z M24.194,60.668
		c1.226-1.073,3.077-2.694,7.09-2.694c4.013,0,5.863,1.621,7.088,2.694c0.819,0.718,1.065,0.933,2.492,0.933
		c1.428,0,1.673-0.215,2.49-0.933c1.227-1.073,3.077-2.693,7.091-2.693c4.013,0,5.861,1.62,7.087,2.693
		c0.817,0.718,1.066,0.933,2.492,0.933c1.427,0,1.675-0.215,2.49-0.933c0.688-0.601,1.59-1.367,2.942-1.93
		c0.029-1.838-0.528-4.181-2.244-6.677c-0.899-1.307-8.646-12.151-8.646-12.151l9.456-7.461c1.499-1.184,1.757-3.357,0.573-4.856
		c-1.186-1.5-3.357-1.753-4.857-0.573l-12.04,9.5c-1.448,1.141-1.744,3.217-0.675,4.719l6.828,9.596l-26.215,6.373
		c-2.42,0.588-4.282,2.257-5.235,4.362C23.238,61.495,23.536,61.246,24.194,60.668L24.194,60.668z M85.127,64.607
		c0.928-0.811,1.594-1.397,3.641-1.397c0.869,0,1.57-0.702,1.57-1.571c0-0.867-0.701-1.571-1.57-1.571
		c-3.227,0-4.604,1.206-5.709,2.177c-0.963,0.842-1.658,1.45-3.87,1.45c-2.213,0-2.908-0.608-3.872-1.452
		c-1.105-0.969-2.48-2.174-5.709-2.174c-3.226,0-4.604,1.205-5.709,2.174c-0.963,0.844-1.658,1.452-3.871,1.452
		s-2.907-0.608-3.871-1.452c-1.106-0.969-2.482-2.174-5.708-2.174c-3.227,0-4.603,1.205-5.71,2.174
		c-0.961,0.844-1.658,1.452-3.871,1.452s-2.908-0.608-3.871-1.452c-1.107-0.969-2.483-2.174-5.709-2.174s-4.603,1.205-5.71,2.174
		c-0.961,0.844-1.656,1.452-3.87,1.452c-2.213,0-2.909-0.608-3.871-1.452c-1.109-0.969-2.485-2.174-5.711-2.174
		c-0.867,0-1.571,0.703-1.571,1.57c0,0.869,0.704,1.571,1.571,1.571c2.044,0,2.714,0.587,3.639,1.397
		c1.136,0.994,2.548,2.229,5.941,2.229s4.806-1.235,5.942-2.229c0.925-0.811,1.594-1.397,3.639-1.397
		c2.044,0,2.713,0.587,3.639,1.397c1.135,0.994,2.547,2.229,5.941,2.229s4.807-1.235,5.942-2.229
		c0.925-0.811,1.593-1.397,3.639-1.397c2.045,0,2.711,0.587,3.639,1.397c1.135,0.994,2.547,2.229,5.941,2.229
		c3.393,0,4.807-1.235,5.941-2.229c0.927-0.811,1.593-1.397,3.639-1.397c2.047,0,2.716,0.587,3.641,1.397
		c1.135,0.994,2.548,2.229,5.942,2.229C82.58,66.836,83.994,65.602,85.127,64.607L85.127,64.607z M85.127,64.607
		c0.928-0.811,1.594-1.397,3.641-1.397c0.869,0,1.57-0.702,1.57-1.571c0-0.867-0.701-1.571-1.57-1.571
		c-3.227,0-4.604,1.206-5.709,2.177c-0.963,0.842-1.658,1.45-3.87,1.45c-2.213,0-2.908-0.608-3.872-1.452
		c-1.105-0.969-2.48-2.174-5.709-2.174c-3.226,0-4.604,1.205-5.709,2.174c-0.963,0.844-1.658,1.452-3.871,1.452
		s-2.907-0.608-3.871-1.452c-1.106-0.969-2.482-2.174-5.708-2.174c-3.227,0-4.603,1.205-5.71,2.174
		c-0.961,0.844-1.658,1.452-3.871,1.452s-2.908-0.608-3.871-1.452c-1.107-0.969-2.483-2.174-5.709-2.174s-4.603,1.205-5.71,2.174
		c-0.961,0.844-1.656,1.452-3.87,1.452c-2.213,0-2.909-0.608-3.871-1.452c-1.109-0.969-2.485-2.174-5.711-2.174
		c-0.867,0-1.571,0.703-1.571,1.57c0,0.869,0.704,1.571,1.571,1.571c2.044,0,2.714,0.587,3.639,1.397
		c1.136,0.994,2.548,2.229,5.941,2.229s4.806-1.235,5.942-2.229c0.925-0.811,1.594-1.397,3.639-1.397
		c2.044,0,2.713,0.587,3.639,1.397c1.135,0.994,2.547,2.229,5.941,2.229s4.807-1.235,5.942-2.229
		c0.925-0.811,1.593-1.397,3.639-1.397c2.045,0,2.711,0.587,3.639,1.397c1.135,0.994,2.547,2.229,5.941,2.229
		c3.393,0,4.807-1.235,5.941-2.229c0.927-0.811,1.593-1.397,3.639-1.397c2.047,0,2.716,0.587,3.641,1.397
		c1.135,0.994,2.548,2.229,5.942,2.229C82.58,66.836,83.994,65.602,85.127,64.607L85.127,64.607z M85.127,70.826
		c0.928-0.812,1.594-1.396,3.641-1.396c0.869,0,1.57-0.704,1.57-1.57c0-0.868-0.701-1.572-1.57-1.572
		c-3.227,0-4.604,1.203-5.709,2.174c-0.961,0.844-1.657,1.451-3.87,1.451s-2.908-0.607-3.872-1.451
		c-1.105-0.971-2.482-2.174-5.709-2.174c-3.226,0-4.604,1.203-5.709,2.174c-0.963,0.844-1.658,1.451-3.871,1.451
		s-2.907-0.607-3.871-1.451c-1.106-0.971-2.482-2.174-5.708-2.174c-3.227,0-4.603,1.203-5.71,2.174
		c-0.961,0.844-1.658,1.451-3.871,1.451s-2.908-0.607-3.871-1.451c-1.107-0.971-2.483-2.174-5.709-2.174s-4.603,1.203-5.71,2.174
		c-0.961,0.844-1.656,1.451-3.87,1.451c-2.213,0-2.909-0.607-3.871-1.451c-1.107-0.971-2.483-2.174-5.709-2.174
		c-0.867,0-1.57,0.704-1.57,1.572c0,0.866,0.703,1.57,1.57,1.57c2.045,0,2.714,0.584,3.639,1.395c1.135,0.994,2.547,2.23,5.941,2.23
		c3.393,0,4.806-1.236,5.94-2.23c0.927-0.811,1.596-1.395,3.641-1.395s2.714,0.584,3.639,1.395c1.135,0.994,2.548,2.23,5.941,2.23
		c3.393,0,4.806-1.236,5.94-2.23c0.927-0.811,1.596-1.395,3.641-1.395c2.044,0,2.711,0.584,3.639,1.395
		c1.134,0.994,2.548,2.23,5.94,2.23s4.807-1.236,5.941-2.23c0.928-0.811,1.594-1.395,3.641-1.395c2.045,0,2.714,0.584,3.64,1.395
		c1.136,0.994,2.548,2.23,5.941,2.23C82.58,73.055,83.994,71.818,85.127,70.826L85.127,70.826z"/>
</g>
</svg>
