<?xml version="1.0" encoding="utf-8"?>
<!-- Generator: Adobe Illustrator 16.0.0, SVG Export Plug-In . SVG Version: 6.00 Build 0)  -->
<!DOCTYPE svg PUBLIC "-//W3C//DTD SVG 1.1//EN" "http://www.w3.org/Graphics/SVG/1.1/DTD/svg11.dtd">
<svg version="1.1" id="Layer_1" xmlns="http://www.w3.org/2000/svg" xmlns:xlink="http://www.w3.org/1999/xlink" x="0px" y="0px"
	 width="103px" height="103px" viewBox="0 0 103 103" enable-background="new 0 0 103 103" xml:space="preserve">
<circle fill="#FFFFFF" stroke="#F0AD4E" stroke-width="4" stroke-miterlimit="10" cx="51.333" cy="51.359" r="50"/>
<g>
	<g>
		<rect x="24.203" y="41.14" fill="#F0AD4E" width="3.984" height="19.321"/>
		<path fill="#F0AD4E" d="M58.062,67.527h1.594v-3.91H24.203v3.91h3.984v20.314H41.93c0-7.17,5.323-6.771,5.323-6.771
			C60.738,78.684,58.062,67.527,58.062,67.527z"/>
		<path fill="#F0AD4E" d="M76.021,28.263c0.957-1.38,1.521-3.053,1.521-4.859c0-4.709-3.815-8.528-8.528-8.528
			c-4.709,0-8.527,3.817-8.527,8.528c0,4.711,3.818,8.529,8.527,8.529c0.823,0,1.612-0.123,2.364-0.339
			c-0.871,3.677-2.25,7.173-3.741,10.63c-0.805-1.234-1.636-2.451-2.447-3.681c1.121-5.415-4.703-11.866-11-8.271
			c-7.062,4.03-12.629,10.548-15.852,17.979c-1.61,3.715-1.086,7.954,2.721,10.151c0.114,0.068,0.237,0.121,0.356,0.183
			c0.669,0.479,1.492,0.806,2.473,0.896c7.317,0.695,14.708,0.834,22.071,0.887c-2.249,6.798-4.872,13.486-7.533,20.115
			c-2.312,5.761,6.992,8.234,9.271,2.555c3.461-8.612,6.857-17.327,9.445-26.249c1.098-3.787-2.234-6.186-5.259-5.918
			c-0.133-0.025-0.264-0.05-0.405-0.063c2.506-6.084,5.569-11.938,6.901-18.432C78.802,30.324,77.557,28.832,76.021,28.263z
			 M53.996,50.514c1.727-2.603,3.833-4.849,6.398-6.581c1.473,2.197,2.907,4.416,4.062,6.805
			C60.971,50.706,57.48,50.647,53.996,50.514z"/>
	</g>
</g>
</svg>
