<?xml version="1.0" encoding="utf-8"?>
<!-- Generator: Adobe Illustrator 16.0.0, SVG Export Plug-In . SVG Version: 6.00 Build 0)  -->
<!DOCTYPE svg PUBLIC "-//W3C//DTD SVG 1.1//EN" "http://www.w3.org/Graphics/SVG/1.1/DTD/svg11.dtd">
<svg version="1.1" id="Layer_1" xmlns="http://www.w3.org/2000/svg" xmlns:xlink="http://www.w3.org/1999/xlink" x="0px" y="0px"
	 width="104.117px" height="103.912px" viewBox="0 0 104.117 103.912" enable-background="new 0 0 104.117 103.912"
	 xml:space="preserve">
<circle fill="#FFFFFF" stroke="#F0AD4E" stroke-width="4" stroke-miterlimit="10" cx="52" cy="52" r="50"/>
<g>
	<path fill="#F0AD4E" d="M31.95,83.243c10.027,0,30.087,0,40.112,0c0.826,0,1.504-0.676,1.504-1.503c0-10.425,0-41.699,0-41.699
		H30.448c0,0,0,31.274,0,41.699C30.448,82.574,31.117,83.243,31.95,83.243z M60.662,48.128c0-1.352,1.097-2.457,2.457-2.457h0.054
		c1.353,0,2.456,1.098,2.456,2.457v27.035c0,1.354-1.096,2.458-2.456,2.458h-0.054c-1.352,0-2.457-1.099-2.457-2.458V48.128
		L60.662,48.128z M49.523,48.128c0-1.352,1.097-2.457,2.457-2.457h0.054c1.353,0,2.457,1.098,2.457,2.457v27.035
		c0,1.354-1.097,2.458-2.457,2.458H51.98c-1.352,0-2.457-1.099-2.457-2.458V48.128z M38.386,48.128c0-1.352,1.097-2.457,2.457-2.457
		h0.053c1.353,0,2.458,1.098,2.458,2.457v27.035c0,1.354-1.098,2.458-2.458,2.458h-0.053c-1.354,0-2.457-1.099-2.457-2.458V48.128z"
		/>
	<path fill="#F0AD4E" d="M61.617,25.896v-3.382c0-2.074-1.684-3.758-3.76-3.758H46.149c-2.075,0-3.76,1.684-3.76,3.758v3.382h3.007
		v-2.631c0-0.826,0.678-1.503,1.504-1.503h10.2c0.826,0,1.504,0.677,1.504,1.503v2.631H61.617z"/>
	<path fill="#F0AD4E" d="M28.568,30.405v5.127c0,0.826,0.677,1.502,1.503,1.502h43.865c0.825,0,1.502-0.676,1.502-1.502v-5.127
		c0-0.826-0.677-1.502-1.502-1.502H30.071C29.245,28.903,28.568,29.572,28.568,30.405z"/>
</g>
</svg>
