<?xml version="1.0" encoding="utf-8"?>
<!-- Generator: Adobe Illustrator 16.0.0, SVG Export Plug-In . SVG Version: 6.00 Build 0)  -->
<!DOCTYPE svg PUBLIC "-//W3C//DTD SVG 1.1//EN" "http://www.w3.org/Graphics/SVG/1.1/DTD/svg11.dtd">
<svg version="1.1" id="Layer_1" xmlns="http://www.w3.org/2000/svg" xmlns:xlink="http://www.w3.org/1999/xlink" x="0px" y="0px"
	 width="103px" height="103px" viewBox="0 0 103 103" enable-background="new 0 0 103 103" xml:space="preserve">
<g>
	<g>
		<path d="M36.335,58.935c-1.123-0.56-2.029-1.499-2.521-2.725c-0.802-2-0.31-4.253,1.251-5.742l9.022-8.592
			c-0.545-0.507-0.987-1.131-1.286-1.848c-0.813-1.966-0.365-4.21,1.138-5.711l10.057-10.202l-9.534-9.535
			c-0.734-0.734-1.925-0.734-2.656,0l-9.537,9.535c-0.538,0.537-0.697,1.373-0.406,2.077c0.291,0.701,0.978,1.188,1.736,1.188h1.667
			c0.205,0,0.39,0.096,0.466,0.285c0.078,0.193,0.031,0.396-0.119,0.54L23.859,39.396c-0.557,0.531-0.731,1.327-0.448,2.041
			c0.286,0.714,0.977,1.166,1.744,1.166h3.388c0.202,0,0.384,0.134,0.464,0.32c0.078,0.188,0.037,0.41-0.105,0.555L14.808,57.791
			c-0.533,0.54-0.687,1.326-0.396,2.027c0.294,0.698,0.977,1.136,1.733,1.136H34.33L36.335,58.935z"/>
		<path d="M87.824,72.351L72.869,57.168c-0.152-0.155-0.193-0.384-0.111-0.582c0.083-0.198,0.276-0.328,0.494-0.328h3.594
			c0.816,0,1.547-0.496,1.854-1.252c0.302-0.758,0.11-1.622-0.479-2.185L65.744,40.94c-0.16-0.151-0.209-0.37-0.126-0.576
			c0.083-0.203,0.278-0.323,0.495-0.323h1.77c0.805,0,1.531-0.499,1.844-1.242c0.305-0.746,0.136-1.609-0.434-2.18L59.176,26.5
			c-0.387-0.387-0.9-0.584-1.409-0.584s-1.021,0.193-1.407,0.58L46.245,36.613c-0.572,0.571-0.74,1.438-0.433,2.183
			c0.307,0.746,1.035,1.242,1.842,1.242h1.766c0.218,0,0.417,0.123,0.495,0.326c0.084,0.202,0.034,0.428-0.125,0.578L37.311,52.821
			c-0.587,0.563-0.777,1.427-0.474,2.183c0.304,0.758,1.036,1.251,1.851,1.251h3.596c0.216,0,0.41,0.129,0.494,0.33
			c0.083,0.199,0.039,0.428-0.112,0.582L27.708,72.35c-0.563,0.575-0.727,1.428-0.419,2.171c0.31,0.74,1.036,1.22,1.839,1.22h20.148
			c1.102,0,1.931,0.895,1.931,1.997v9.005c0,1.101,0.956,1.947,2.056,1.947h9.007c1.104,0,2.026-0.847,2.026-1.947v-9.005
			c0-1.103,0.859-1.997,1.963-1.997h20.148c0.806,0,1.526-0.482,1.843-1.22C88.553,73.777,88.389,72.925,87.824,72.351z"/>
	</g>
</g>
<circle fill="none" stroke="#000000" stroke-width="4" stroke-miterlimit="10" cx="51.333" cy="51.359" r="50"/>
</svg>
